<?xml version="1.0" encoding="utf-8"?>
<!-- Generator: Adobe Illustrator 16.0.0, SVG Export Plug-In . SVG Version: 6.00 Build 0)  -->
<!DOCTYPE svg PUBLIC "-//W3C//DTD SVG 1.1//EN" "http://www.w3.org/Graphics/SVG/1.1/DTD/svg11.dtd">
<svg version="1.1" id="Layer_1" xmlns="http://www.w3.org/2000/svg" xmlns:xlink="http://www.w3.org/1999/xlink" x="0px" y="0px"
	 width="200px" height="100px" viewBox="0 0 200 100" enable-background="new 0 0 200 100" xml:space="preserve">
<g>
	<path fill="none" stroke="#666666" stroke-miterlimit="10" d="M33.849,35.193c-0.925-0.23-1.646-0.482-2.163-0.754
		c0-0.544,0.082-0.973,0.245-1.286c0.163-0.312,0.38-0.469,0.653-0.469c0.217,0,0.53,0.082,0.938,0.245
		c0.108,0.027,0.482,0.129,1.122,0.306s1.353,0.265,2.142,0.265c3.617,0,5.426-1.944,5.426-5.834V6.572h2.326v21.094
		c0,2.503-0.687,4.441-2.06,5.814c-1.374,1.374-3.299,2.061-5.773,2.061C35.726,35.54,34.773,35.424,33.849,35.193z"/>
	<path fill="none" stroke="#666666" stroke-miterlimit="10" d="M67.854,32.664c0.204,0.693,0.564,1.285,1.082,1.775
		c-0.137,0.245-0.354,0.456-0.653,0.632c-0.3,0.176-0.585,0.265-0.857,0.265c-0.571,0-1.041-0.36-1.408-1.082
		c-0.367-0.72-0.591-1.679-0.673-2.876c-0.925,1.279-2.149,2.292-3.672,3.04c-1.523,0.748-3.142,1.122-4.855,1.122
		c-1.958,0-3.557-0.551-4.794-1.653c-1.238-1.102-1.856-2.522-1.856-4.263c0-2.53,1.278-4.509,3.835-5.937
		c2.557-1.428,6.324-2.25,11.302-2.468v-1.306c0-3.835-1.945-5.753-5.834-5.753c-1.36,0-2.618,0.259-3.774,0.775
		c-1.156,0.517-2.292,1.346-3.407,2.489c-0.136,0.136-0.327,0.204-0.571,0.204s-0.503-0.095-0.775-0.285
		c-0.272-0.19-0.517-0.462-0.735-0.816c1.169-1.359,2.571-2.407,4.203-3.142s3.359-1.102,5.182-1.102
		c2.502,0,4.454,0.673,5.855,2.02c1.4,1.347,2.101,3.217,2.101,5.61v9.833C67.549,30.998,67.651,31.97,67.854,32.664z
		 M61.551,32.337c1.441-0.883,2.693-2.128,3.753-3.733v-5.508c-4.325,0.191-7.548,0.816-9.669,1.877
		c-2.122,1.061-3.183,2.598-3.183,4.61c0,1.279,0.408,2.278,1.224,2.999s1.931,1.081,3.346,1.081
		C58.6,33.663,60.109,33.221,61.551,32.337z"/>
	<path fill="none" stroke="#666666" stroke-miterlimit="10" d="M77.32,34.112c-1.537-0.952-2.72-2.312-3.549-4.08
		c-0.83-1.768-1.245-3.849-1.245-6.242c0-2.312,0.421-4.338,1.265-6.079c0.843-1.741,2.04-3.081,3.59-4.019s3.359-1.408,5.426-1.408
		c2.475,0,4.508,0.64,6.1,1.918c1.591,1.279,2.495,2.992,2.713,5.141c-0.218,0.109-0.477,0.204-0.775,0.286
		c-0.3,0.082-0.558,0.122-0.775,0.122c-0.245,0-0.428-0.074-0.551-0.224c-0.122-0.149-0.238-0.455-0.347-0.918
		c-0.326-1.387-1.054-2.475-2.183-3.264c-1.129-0.789-2.523-1.183-4.182-1.183c-1.578,0-2.972,0.402-4.182,1.204
		c-1.21,0.803-2.149,1.932-2.815,3.386c-0.667,1.456-1,3.135-1,5.039c0,1.958,0.326,3.679,0.979,5.161
		c0.653,1.483,1.584,2.631,2.795,3.448c1.21,0.816,2.604,1.224,4.182,1.224c1.795,0,3.326-0.401,4.59-1.204
		c1.265-0.802,2.224-1.979,2.876-3.529c0.299,0,0.557,0.129,0.775,0.387c0.218,0.259,0.327,0.565,0.327,0.918
		c0,0.898-0.402,1.762-1.204,2.591c-0.803,0.83-1.871,1.497-3.203,2c-1.333,0.503-2.72,0.755-4.162,0.755
		C80.672,35.54,78.857,35.064,77.32,34.112z"/>
	<path fill="none" stroke="#666666" stroke-miterlimit="10" d="M97.333,32.602c-1.605-1.958-2.407-4.868-2.407-8.731
		c0-7.725,3.183-11.587,9.547-11.587c6.365,0,9.547,3.863,9.547,11.587c0,3.863-0.803,6.773-2.406,8.731
		c-1.605,1.958-3.986,2.938-7.141,2.938C101.316,35.54,98.937,34.561,97.333,32.602z M109.961,31.235
		c1.183-1.591,1.773-4.045,1.773-7.364c0-3.318-0.591-5.766-1.773-7.344c-1.184-1.577-3.014-2.366-5.488-2.366
		c-2.476,0-4.304,0.789-5.488,2.366c-1.183,1.578-1.774,4.026-1.774,7.344c0,3.319,0.591,5.773,1.774,7.364
		c1.184,1.591,3.012,2.387,5.488,2.387C106.947,33.622,108.777,32.827,109.961,31.235z"/>
	<path fill="none" stroke="#666666" stroke-miterlimit="10" d="M135.97,15.242c1.632,1.973,2.448,4.849,2.448,8.629
		c0,2.394-0.408,4.468-1.225,6.222c-0.815,1.754-1.992,3.101-3.528,4.039c-1.537,0.938-3.354,1.408-5.447,1.408
		c-2.421,0-4.61-0.49-6.568-1.469v10.037h-2.244V19.301c0-1.985-0.035-3.427-0.103-4.325c-0.068-0.897-0.197-1.536-0.388-1.917
		c0.571-0.353,1.115-0.53,1.633-0.53c0.734,0,1.102,0.802,1.102,2.407v0.245c0.951-0.924,2.053-1.638,3.305-2.142
		c1.25-0.503,2.543-0.755,3.876-0.755C131.957,12.284,134.338,13.27,135.97,15.242z M133.991,31.052
		c1.4-1.74,2.101-4.134,2.101-7.181c0-3.183-0.611-5.596-1.836-7.242c-1.224-1.645-3.033-2.468-5.426-2.468
		c-1.306,0-2.585,0.3-3.836,0.897c-1.251,0.599-2.366,1.456-3.345,2.57v14.403c0.924,0.517,1.951,0.918,3.08,1.204
		c1.128,0.285,2.291,0.428,3.488,0.428C130.666,33.663,132.59,32.793,133.991,31.052z"/>
	<path fill="none" stroke="#666666" stroke-miterlimit="10" d="M144.089,32.602c-1.605-1.958-2.407-4.868-2.407-8.731
		c0-7.725,3.183-11.587,9.548-11.587c6.364,0,9.547,3.863,9.547,11.587c0,3.863-0.803,6.773-2.407,8.731
		c-1.605,1.958-3.985,2.938-7.14,2.938C148.073,35.54,145.693,34.561,144.089,32.602z M156.717,31.235
		c1.183-1.591,1.774-4.045,1.774-7.364c0-3.318-0.592-5.766-1.774-7.344c-1.184-1.577-3.013-2.366-5.487-2.366
		c-2.476,0-4.305,0.789-5.488,2.366c-1.183,1.578-1.774,4.026-1.774,7.344c0,3.319,0.592,5.773,1.774,7.364
		c1.184,1.591,3.013,2.387,5.488,2.387C153.704,33.622,155.533,32.827,156.717,31.235z"/>
</g>
<g>
	<path fill="none" stroke="#BD0909" stroke-miterlimit="10" d="M33.931,80.513c-0.381-9.792-1.183-18.21-2.407-25.256
		c-1.469,3.129-2.789,6.277-3.958,9.445c-1.17,3.17-2.584,7.42-4.243,12.751h-1.714c-1.442-4.651-2.761-8.589-3.958-11.813
		c-1.197-3.223-2.625-6.644-4.284-10.261c-1.224,7.099-2.026,15.478-2.407,25.133H8.634c0.462-11.642,1.482-21.161,3.06-28.561
		h2.448c1.958,4.054,3.563,7.664,4.814,10.833c1.251,3.169,2.42,6.508,3.509,10.017c1.061-3.481,2.224-6.807,3.488-9.976
		c1.265-3.169,2.862-6.794,4.794-10.874h2.448c1.577,7.399,2.597,16.919,3.06,28.561H33.931z"/>
	<path fill="none" stroke="#BD0909" stroke-miterlimit="10" d="M44.008,53.218c-0.272-0.272-0.408-0.653-0.408-1.143v-0.327
		c0-0.489,0.136-0.862,0.408-1.121c0.271-0.259,0.653-0.388,1.142-0.388h0.286c1.006,0,1.51,0.503,1.51,1.509v0.327
		c0,0.489-0.129,0.87-0.388,1.143c-0.259,0.271-0.632,0.407-1.122,0.407H45.15C44.661,53.625,44.28,53.49,44.008,53.218z
		 M44.13,58.073h2.244v22.44H44.13V58.073z"/>
	<path fill="none" stroke="#BD0909" stroke-miterlimit="10" d="M73.833,57.196c0.217,0.204,0.326,0.564,0.326,1.081
		c0,0.272-0.014,0.477-0.041,0.612c-2.122,0-3.631,0.367-4.529,1.102c1.306,1.306,1.958,3.033,1.958,5.182
		c0,5.223-3.006,7.834-9.017,7.834c-2.04,0-3.502,0.136-4.386,0.407c-0.884,0.272-1.326,0.734-1.326,1.388
		c0,0.762,0.489,1.285,1.469,1.57c0.979,0.286,2.733,0.429,5.263,0.429c3.209,0,5.657,0.477,7.344,1.428
		c1.686,0.953,2.529,2.339,2.529,4.162c0,2.148-0.864,3.746-2.591,4.794c-1.728,1.047-4.359,1.57-7.895,1.57
		c-3.128,0-5.536-0.496-7.222-1.488c-1.687-0.994-2.53-2.428-2.53-4.305c0-1.197,0.367-2.211,1.102-3.04s1.795-1.435,3.183-1.815
		v-0.122c-0.816-0.19-1.462-0.558-1.938-1.102c-0.477-0.544-0.714-1.197-0.714-1.959c0-0.761,0.279-1.4,0.836-1.917
		c0.557-0.517,1.339-0.857,2.346-1.021c-1.224-0.652-2.183-1.522-2.876-2.611c-0.694-1.087-1.041-2.325-1.041-3.713
		c0-5.33,3.074-7.997,9.221-7.997c1.931,0,3.576,0.423,4.937,1.266c0.707-0.626,1.462-1.122,2.265-1.489
		c0.802-0.367,1.557-0.551,2.264-0.551C73.261,56.89,73.614,56.992,73.833,57.196z M69.242,79.697
		c-1.238-0.598-3.284-0.897-6.14-0.897c-2.611,0-4.529,0.307-5.753,0.918c-1.224,0.612-1.836,1.585-1.836,2.918
		c0,1.441,0.605,2.502,1.815,3.182c1.21,0.68,3.081,1.021,5.61,1.021c2.829,0,4.896-0.334,6.202-1
		c1.305-0.667,1.958-1.733,1.958-3.202C71.099,81.274,70.48,80.295,69.242,79.697z M67.671,69.721
		c1.034-0.911,1.551-2.372,1.551-4.386c0-1.985-0.524-3.454-1.571-4.406c-1.048-0.952-2.673-1.428-4.876-1.428
		c-4.271,0-6.405,1.944-6.405,5.834c0,1.85,0.551,3.271,1.652,4.264c1.102,0.993,2.686,1.489,4.753,1.489
		C65.005,71.088,66.638,70.633,67.671,69.721z"/>
	<path fill="none" stroke="#BD0909" stroke-miterlimit="10" d="M79.381,48.24h2.244v32.273h-2.244V48.24z"/>
	<path fill="none" stroke="#BD0909" stroke-miterlimit="10" d="M90.642,53.218c-0.272-0.272-0.408-0.653-0.408-1.143v-0.327
		c0-0.489,0.136-0.862,0.408-1.121c0.271-0.259,0.653-0.388,1.142-0.388h0.286c1.006,0,1.51,0.503,1.51,1.509v0.327
		c0,0.489-0.129,0.87-0.388,1.143c-0.259,0.271-0.632,0.407-1.122,0.407h-0.286C91.295,53.625,90.914,53.49,90.642,53.218z
		 M90.764,58.073h2.244v22.44h-2.244V58.073z"/>
	<path fill="none" stroke="#BD0909" stroke-miterlimit="10" d="M101.82,77.984c-1.605-1.959-2.407-4.869-2.407-8.731
		c0-7.725,3.183-11.588,9.548-11.588c6.364,0,9.547,3.863,9.547,11.588c0,3.862-0.803,6.772-2.407,8.731
		c-1.605,1.958-3.985,2.938-7.14,2.938C105.805,80.921,103.425,79.942,101.82,77.984z M114.448,76.617
		c1.184-1.591,1.774-4.046,1.774-7.364s-0.591-5.767-1.774-7.344s-3.013-2.367-5.487-2.367c-2.476,0-4.305,0.79-5.488,2.367
		c-1.183,1.577-1.774,4.025-1.774,7.344s0.592,5.773,1.774,7.364c1.184,1.591,3.013,2.387,5.488,2.387
		C111.436,79.003,113.265,78.208,114.448,76.617z"/>
	<path fill="none" stroke="#BD0909" stroke-miterlimit="10" d="M134.767,58.216c0.53,0.285,0.796,0.687,0.796,1.203
		c0,0.463-0.15,0.803-0.449,1.02c-0.626-0.38-1.537-0.57-2.733-0.57c-1.252,0-2.374,0.354-3.366,1.061
		c-0.993,0.707-1.769,1.68-2.325,2.917c-0.559,1.238-0.837,2.646-0.837,4.223v12.444h-2.244v-22.44h2.244v4.203
		c0.68-1.306,1.632-2.38,2.856-3.224c1.224-0.843,2.516-1.265,3.876-1.265C133.508,57.788,134.236,57.93,134.767,58.216z"/>
	<path fill="none" stroke="#BD0909" stroke-miterlimit="10" d="M157.594,69.579h-16.81c0.081,2.911,0.788,5.202,2.121,6.875
		s3.128,2.509,5.386,2.509c1.523,0,2.809-0.285,3.855-0.856s1.965-1.495,2.754-2.774c0.299-0.462,0.626-0.693,0.979-0.693
		c0.299,0,0.748,0.19,1.347,0.571c-0.681,1.822-1.796,3.229-3.346,4.223c-1.551,0.993-3.414,1.489-5.59,1.489
		c-1.985,0-3.713-0.476-5.182-1.428s-2.604-2.306-3.407-4.061c-0.802-1.754-1.203-3.814-1.203-6.181
		c0-3.645,0.877-6.487,2.632-8.527c1.754-2.04,4.195-3.061,7.323-3.061c2.91,0,5.175,0.912,6.793,2.734s2.428,4.352,2.428,7.589
		C157.675,68.559,157.647,69.089,157.594,69.579z M155.391,67.702c0-2.638-0.599-4.644-1.796-6.018
		c-1.197-1.373-2.951-2.061-5.263-2.061c-2.177,0-3.924,0.708-5.243,2.121c-1.319,1.415-2.074,3.4-2.265,5.957H155.391z"/>
	<path fill="none" stroke="#BD0909" stroke-miterlimit="10" d="M163.673,48.24h2.244v32.273h-2.244V48.24z"/>
	<path fill="none" stroke="#BD0909" stroke-miterlimit="10" d="M174.647,48.24h2.244v32.273h-2.244V48.24z"/>
	<path fill="none" stroke="#BD0909" stroke-miterlimit="10" d="M185.909,53.218c-0.272-0.272-0.408-0.653-0.408-1.143v-0.327
		c0-0.489,0.136-0.862,0.408-1.121c0.271-0.259,0.652-0.388,1.143-0.388h0.285c1.006,0,1.51,0.503,1.51,1.509v0.327
		c0,0.489-0.13,0.87-0.388,1.143c-0.259,0.271-0.633,0.407-1.122,0.407h-0.285C186.562,53.625,186.181,53.49,185.909,53.218z
		 M186.031,58.073h2.244v22.44h-2.244V58.073z"/>
</g>
</svg>
